G04 (created by PCBnew (20090216-final)) date Tue 06 Sep 2011 07:14:20 PM CEST*
G01*
G70*
G90*
%MOIN*%
G04 Gerber Fmt 3.4, Leading zero omitted, Abs format*
%FSLAX34Y34*%
G04 APERTURE LIST*
%ADD10C,0.015000*%
%ADD11R,0.062000X0.090000*%
%ADD12O,0.062000X0.090000*%
%ADD13R,0.055000X0.055000*%
%ADD14C,0.055000*%
%ADD15C,0.007900*%
%ADD16C,0.039400*%
%ADD17C,0.017000*%
%ADD18C,0.010000*%
G04 APERTURE END LIST*
G54D10*
X00535Y12181D02*
X00614Y12181D01*
X00456Y12181D02*
X00535Y12181D01*
X00456Y00212D02*
X00456Y12181D01*
X15810Y00212D02*
X00456Y00212D01*
X15810Y12181D02*
X15810Y00212D01*
X00456Y12181D02*
X15810Y12181D01*
G54D11*
X06473Y05126D03*
G54D12*
X07473Y05126D03*
X07473Y09126D03*
X06473Y09126D03*
G54D11*
X04473Y05126D03*
G54D12*
X05473Y05126D03*
X05473Y09126D03*
X04473Y09126D03*
G54D13*
X07473Y04026D03*
G54D14*
X07473Y03026D03*
G54D13*
X06473Y03026D03*
G54D14*
X06473Y04026D03*
G54D13*
X05473Y03026D03*
G54D14*
X05473Y04026D03*
G54D13*
X04473Y02126D03*
G54D14*
X05473Y02126D03*
X06473Y02126D03*
X07473Y02126D03*
G54D16*
X05473Y05126D02*
X06473Y05126D01*
X07473Y04026D02*
X07473Y05126D01*
X05473Y09126D02*
X05473Y09926D01*
X07473Y10026D02*
X07473Y09126D01*
X07173Y10326D02*
X07473Y10026D01*
X05873Y10326D02*
X07173Y10326D01*
X05473Y09926D02*
X05873Y10326D01*
X04473Y02126D02*
X04473Y05126D01*
X06473Y02126D02*
X06473Y01401D01*
X06473Y07602D02*
X06473Y09126D01*
X06791Y07284D02*
X06473Y07602D01*
X08464Y07284D02*
X06791Y07284D01*
X09154Y06594D02*
X08464Y07284D01*
X09154Y01575D02*
X09154Y06594D01*
X08563Y00984D02*
X09154Y01575D01*
X06890Y00984D02*
X08563Y00984D01*
X06473Y01401D02*
X06890Y00984D01*
X06473Y03026D02*
X06473Y02126D01*
X05473Y02126D02*
X05473Y01339D01*
X03150Y07803D02*
X04473Y09126D01*
X03150Y01378D02*
X03150Y07803D01*
X03544Y00984D02*
X03150Y01378D01*
X05118Y00984D02*
X03544Y00984D01*
X05473Y01339D02*
X05118Y00984D01*
X05473Y02126D02*
X05473Y03026D01*
G54D15*
X07473Y03026D02*
X07593Y03026D01*
X04961Y07559D02*
X04961Y10472D01*
X06142Y06378D02*
X04961Y07559D01*
X07638Y06378D02*
X06142Y06378D01*
X08347Y05669D02*
X07638Y06378D01*
X08347Y03780D02*
X08347Y05669D01*
X07593Y03026D02*
X08347Y03780D01*
G54D16*
X07473Y03026D02*
X07447Y03026D01*
X07245Y03228D02*
X07245Y03254D01*
X07447Y03026D02*
X07245Y03228D01*
X06473Y04026D02*
X06526Y04026D01*
G54D17*
X06694Y03805D02*
X07245Y03254D01*
G54D16*
X06526Y04026D02*
X06694Y03858D01*
X06694Y03858D02*
X06694Y03805D01*
X07473Y03026D02*
X07473Y02126D01*
X05473Y04026D02*
X05973Y04026D01*
X05973Y04026D02*
X06473Y04026D01*
G54D18*
X07040Y01467D02*
X08413Y01467D01*
X03693Y01467D02*
X04969Y01467D01*
X06960Y01547D02*
X08493Y01547D01*
X03613Y01547D02*
X05026Y01547D01*
X07625Y01627D02*
X08573Y01627D01*
X06920Y01627D02*
X07341Y01627D01*
X04857Y01627D02*
X05026Y01627D01*
X03597Y01627D02*
X04088Y01627D01*
X07748Y01707D02*
X08653Y01707D01*
X06920Y01707D02*
X07197Y01707D01*
X04956Y01707D02*
X05026Y01707D01*
X03597Y01707D02*
X03990Y01707D01*
X07741Y01787D02*
X08707Y01787D01*
X06920Y01787D02*
X07205Y01787D01*
X04991Y01787D02*
X05026Y01787D01*
X03597Y01787D02*
X03955Y01787D01*
X07927Y01867D02*
X08707Y01867D01*
X07661Y01867D02*
X07803Y01867D01*
X07143Y01867D02*
X07285Y01867D01*
X06934Y01867D02*
X07017Y01867D01*
X04997Y01867D02*
X05012Y01867D01*
X03597Y01867D02*
X03949Y01867D01*
X07955Y01947D02*
X08707Y01947D01*
X07581Y01947D02*
X07723Y01947D01*
X07223Y01947D02*
X07365Y01947D01*
X06966Y01947D02*
X06985Y01947D01*
X03597Y01947D02*
X03949Y01947D01*
X07983Y02027D02*
X08707Y02027D01*
X07501Y02027D02*
X07643Y02027D01*
X07303Y02027D02*
X07445Y02027D01*
X03597Y02027D02*
X03949Y02027D01*
X07990Y02107D02*
X08707Y02107D01*
X07383Y02107D02*
X07563Y02107D01*
X03597Y02107D02*
X03949Y02107D01*
X07985Y02187D02*
X08707Y02187D01*
X07341Y02187D02*
X07605Y02187D01*
X03597Y02187D02*
X03949Y02187D01*
X07977Y02267D02*
X08707Y02267D01*
X07543Y02267D02*
X07685Y02267D01*
X07261Y02267D02*
X07403Y02267D01*
X03597Y02267D02*
X03949Y02267D01*
X07944Y02347D02*
X08707Y02347D01*
X07623Y02347D02*
X07765Y02347D01*
X07181Y02347D02*
X07323Y02347D01*
X06950Y02347D02*
X07005Y02347D01*
X03597Y02347D02*
X03949Y02347D01*
X07703Y02427D02*
X08707Y02427D01*
X06920Y02427D02*
X07243Y02427D01*
X04997Y02427D02*
X05026Y02427D01*
X03597Y02427D02*
X03949Y02427D01*
X07758Y02507D02*
X08707Y02507D01*
X06920Y02507D02*
X07188Y02507D01*
X04974Y02507D02*
X05026Y02507D01*
X03597Y02507D02*
X03973Y02507D01*
X07742Y02587D02*
X08707Y02587D01*
X06936Y02587D02*
X07202Y02587D01*
X04920Y02587D02*
X05010Y02587D01*
X03597Y02587D02*
X04026Y02587D01*
X07761Y02667D02*
X08707Y02667D01*
X06982Y02667D02*
X07185Y02667D01*
X04920Y02667D02*
X04963Y02667D01*
X03597Y02667D02*
X04026Y02667D01*
X07877Y02747D02*
X08707Y02747D01*
X07681Y02747D02*
X07823Y02747D01*
X07123Y02747D02*
X07265Y02747D01*
X06997Y02747D02*
X07068Y02747D01*
X04920Y02747D02*
X04949Y02747D01*
X03597Y02747D02*
X04026Y02747D01*
X07948Y02827D02*
X08707Y02827D01*
X07601Y02827D02*
X07743Y02827D01*
X07203Y02827D02*
X07345Y02827D01*
X04920Y02827D02*
X04949Y02827D01*
X03597Y02827D02*
X04026Y02827D01*
X07976Y02907D02*
X08707Y02907D01*
X07521Y02907D02*
X07663Y02907D01*
X07283Y02907D02*
X07425Y02907D01*
X04920Y02907D02*
X04949Y02907D01*
X03597Y02907D02*
X04026Y02907D01*
X07991Y02987D02*
X08707Y02987D01*
X07363Y02987D02*
X07583Y02987D01*
X04920Y02987D02*
X04949Y02987D01*
X03597Y02987D02*
X04026Y02987D01*
X07986Y03067D02*
X08707Y03067D01*
X07361Y03067D02*
X07585Y03067D01*
X04920Y03067D02*
X04949Y03067D01*
X03597Y03067D02*
X04026Y03067D01*
X07982Y03147D02*
X08707Y03147D01*
X07523Y03147D02*
X07665Y03147D01*
X07281Y03147D02*
X07423Y03147D01*
X04920Y03147D02*
X04949Y03147D01*
X03597Y03147D02*
X04026Y03147D01*
X07952Y03227D02*
X08707Y03227D01*
X07603Y03227D02*
X07745Y03227D01*
X07201Y03227D02*
X07343Y03227D01*
X06997Y03227D02*
X06999Y03227D01*
X04920Y03227D02*
X04949Y03227D01*
X03597Y03227D02*
X04026Y03227D01*
X07870Y03307D02*
X08707Y03307D01*
X07683Y03307D02*
X07825Y03307D01*
X07121Y03307D02*
X07263Y03307D01*
X06997Y03307D02*
X07077Y03307D01*
X04920Y03307D02*
X04949Y03307D01*
X03597Y03307D02*
X04026Y03307D01*
X07763Y03387D02*
X08707Y03387D01*
X06982Y03387D02*
X07183Y03387D01*
X04920Y03387D02*
X04965Y03387D01*
X03597Y03387D02*
X04026Y03387D01*
X07743Y03467D02*
X08707Y03467D01*
X06934Y03467D02*
X07204Y03467D01*
X05934Y03467D02*
X06012Y03467D01*
X04920Y03467D02*
X05012Y03467D01*
X03597Y03467D02*
X04026Y03467D01*
X07896Y03547D02*
X08707Y03547D01*
X06806Y03547D02*
X07050Y03547D01*
X05806Y03547D02*
X06142Y03547D01*
X04920Y03547D02*
X05142Y03547D01*
X03597Y03547D02*
X04026Y03547D01*
X07966Y03627D02*
X08707Y03627D01*
X06753Y03627D02*
X06979Y03627D01*
X05753Y03627D02*
X06192Y03627D01*
X04920Y03627D02*
X05192Y03627D01*
X03597Y03627D02*
X04026Y03627D01*
X07997Y03707D02*
X08707Y03707D01*
X06721Y03707D02*
X06949Y03707D01*
X05721Y03707D02*
X06225Y03707D01*
X04920Y03707D02*
X05225Y03707D01*
X03597Y03707D02*
X04026Y03707D01*
X07997Y03787D02*
X08707Y03787D01*
X06934Y03787D02*
X06949Y03787D01*
X06641Y03787D02*
X06783Y03787D01*
X06163Y03787D02*
X06305Y03787D01*
X05934Y03787D02*
X06009Y03787D01*
X05641Y03787D02*
X05783Y03787D01*
X05163Y03787D02*
X05305Y03787D01*
X04920Y03787D02*
X05009Y03787D01*
X03597Y03787D02*
X04026Y03787D01*
X07997Y03867D02*
X08707Y03867D01*
X06561Y03867D02*
X06703Y03867D01*
X06243Y03867D02*
X06385Y03867D01*
X05962Y03867D02*
X05976Y03867D01*
X05561Y03867D02*
X05703Y03867D01*
X05243Y03867D02*
X05385Y03867D01*
X04920Y03867D02*
X04976Y03867D01*
X03597Y03867D02*
X04026Y03867D01*
X07997Y03947D02*
X08707Y03947D01*
X06481Y03947D02*
X06623Y03947D01*
X06323Y03947D02*
X06465Y03947D01*
X05481Y03947D02*
X05623Y03947D01*
X05323Y03947D02*
X05465Y03947D01*
X04920Y03947D02*
X04962Y03947D01*
X03597Y03947D02*
X04026Y03947D01*
X07997Y04027D02*
X08707Y04027D01*
X06401Y04027D02*
X06545Y04027D01*
X05401Y04027D02*
X05545Y04027D01*
X04920Y04027D02*
X04957Y04027D01*
X03597Y04027D02*
X04026Y04027D01*
X07997Y04107D02*
X08707Y04107D01*
X06483Y04107D02*
X06625Y04107D01*
X06321Y04107D02*
X06463Y04107D01*
X05483Y04107D02*
X05625Y04107D01*
X05321Y04107D02*
X05463Y04107D01*
X04920Y04107D02*
X04957Y04107D01*
X03597Y04107D02*
X04026Y04107D01*
X07997Y04187D02*
X08707Y04187D01*
X06563Y04187D02*
X06705Y04187D01*
X06241Y04187D02*
X06383Y04187D01*
X05968Y04187D02*
X05984Y04187D01*
X05563Y04187D02*
X05705Y04187D01*
X05241Y04187D02*
X05383Y04187D01*
X04920Y04187D02*
X04985Y04187D01*
X03597Y04187D02*
X04026Y04187D01*
X07997Y04267D02*
X08707Y04267D01*
X06936Y04267D02*
X06949Y04267D01*
X06643Y04267D02*
X06785Y04267D01*
X06161Y04267D02*
X06303Y04267D01*
X05936Y04267D02*
X06012Y04267D01*
X05643Y04267D02*
X05785Y04267D01*
X05161Y04267D02*
X05303Y04267D01*
X04920Y04267D02*
X05012Y04267D01*
X03597Y04267D02*
X04026Y04267D01*
X07997Y04347D02*
X08707Y04347D01*
X06723Y04347D02*
X06949Y04347D01*
X05723Y04347D02*
X06223Y04347D01*
X04920Y04347D02*
X05223Y04347D01*
X03597Y04347D02*
X04026Y04347D01*
X07966Y04427D02*
X08707Y04427D01*
X06752Y04427D02*
X06981Y04427D01*
X05753Y04427D02*
X06193Y04427D01*
X04920Y04427D02*
X05194Y04427D01*
X03597Y04427D02*
X04026Y04427D01*
X07920Y04507D02*
X08707Y04507D01*
X06966Y04507D02*
X07026Y04507D01*
X05781Y04507D02*
X05980Y04507D01*
X04966Y04507D02*
X05164Y04507D01*
X03597Y04507D02*
X03980Y04507D01*
X07920Y04587D02*
X08707Y04587D01*
X07015Y04587D02*
X07026Y04587D01*
X05863Y04587D02*
X05930Y04587D01*
X05015Y04587D02*
X05083Y04587D01*
X03597Y04587D02*
X03930Y04587D01*
X07940Y04667D02*
X08707Y04667D01*
X03597Y04667D02*
X03914Y04667D01*
X07973Y04747D02*
X08707Y04747D01*
X03597Y04747D02*
X03914Y04747D01*
X08006Y04827D02*
X08707Y04827D01*
X03597Y04827D02*
X03914Y04827D01*
X08022Y04907D02*
X08707Y04907D01*
X03597Y04907D02*
X03914Y04907D01*
X08022Y04987D02*
X08707Y04987D01*
X03597Y04987D02*
X03914Y04987D01*
X08022Y05067D02*
X08707Y05067D01*
X03597Y05067D02*
X03914Y05067D01*
X08022Y05147D02*
X08707Y05147D01*
X03597Y05147D02*
X03914Y05147D01*
X08022Y05227D02*
X08707Y05227D01*
X03597Y05227D02*
X03914Y05227D01*
X08022Y05307D02*
X08707Y05307D01*
X03597Y05307D02*
X03914Y05307D01*
X08022Y05387D02*
X08707Y05387D01*
X03597Y05387D02*
X03914Y05387D01*
X07990Y05467D02*
X08707Y05467D01*
X03597Y05467D02*
X03914Y05467D01*
X07956Y05547D02*
X08707Y05547D01*
X03597Y05547D02*
X03914Y05547D01*
X07901Y05627D02*
X08707Y05627D01*
X07032Y05627D02*
X07045Y05627D01*
X05901Y05627D02*
X05915Y05627D01*
X05032Y05627D02*
X05045Y05627D01*
X03597Y05627D02*
X03915Y05627D01*
X07821Y05707D02*
X08707Y05707D01*
X06999Y05707D02*
X07125Y05707D01*
X05821Y05707D02*
X05948Y05707D01*
X04999Y05707D02*
X05125Y05707D01*
X03597Y05707D02*
X03948Y05707D01*
X07681Y05787D02*
X08707Y05787D01*
X06924Y05787D02*
X07266Y05787D01*
X05681Y05787D02*
X06022Y05787D01*
X04924Y05787D02*
X05266Y05787D01*
X03597Y05787D02*
X04022Y05787D01*
X03597Y05867D02*
X08707Y05867D01*
X03597Y05947D02*
X08707Y05947D01*
X03597Y06027D02*
X08707Y06027D01*
X03597Y06107D02*
X08707Y06107D01*
X03597Y06187D02*
X08707Y06187D01*
X03597Y06267D02*
X08707Y06267D01*
X03597Y06347D02*
X08707Y06347D01*
X03597Y06427D02*
X08688Y06427D01*
X03597Y06507D02*
X08608Y06507D01*
X03597Y06587D02*
X08528Y06587D01*
X03597Y06667D02*
X08448Y06667D01*
X03597Y06747D02*
X08368Y06747D01*
X03597Y06827D02*
X08288Y06827D01*
X03597Y06907D02*
X06565Y06907D01*
X03597Y06987D02*
X06455Y06987D01*
X03597Y07067D02*
X06375Y07067D01*
X03597Y07147D02*
X06295Y07147D01*
X03597Y07227D02*
X06215Y07227D01*
X03597Y07307D02*
X06142Y07307D01*
X03597Y07387D02*
X06089Y07387D01*
X03597Y07467D02*
X06052Y07467D01*
X03597Y07547D02*
X06036Y07547D01*
X03606Y07627D02*
X06026Y07627D01*
X03686Y07707D02*
X06026Y07707D01*
X03766Y07787D02*
X06026Y07787D01*
X03846Y07867D02*
X06026Y07867D01*
X03926Y07947D02*
X06026Y07947D01*
X04006Y08027D02*
X06026Y08027D01*
X04086Y08107D02*
X06026Y08107D01*
X04166Y08187D02*
X06026Y08187D01*
X04246Y08267D02*
X06026Y08267D01*
X04326Y08347D02*
X06026Y08347D01*
X05589Y08427D02*
X06026Y08427D01*
X04589Y08427D02*
X05356Y08427D01*
X05781Y08507D02*
X06026Y08507D01*
X04781Y08507D02*
X05164Y08507D01*
X05863Y08587D02*
X06026Y08587D01*
X04863Y08587D02*
X05083Y08587D01*
X05940Y08667D02*
X06005Y08667D01*
X04940Y08667D02*
X05005Y08667D01*
X05972Y08747D02*
X05972Y08747D01*
X04973Y08747D02*
X04973Y08747D01*
X08603Y00545D02*
X15535Y00545D01*
X05158Y00545D02*
X06849Y00545D01*
X00731Y00545D02*
X03503Y00545D01*
X08814Y00625D02*
X15535Y00625D01*
X05369Y00625D02*
X06637Y00625D01*
X00731Y00625D02*
X03292Y00625D01*
X08916Y00705D02*
X15535Y00705D01*
X05471Y00705D02*
X06536Y00705D01*
X00731Y00705D02*
X03191Y00705D01*
X08996Y00785D02*
X15535Y00785D01*
X05551Y00785D02*
X06456Y00785D01*
X00731Y00785D02*
X03111Y00785D01*
X09076Y00865D02*
X15535Y00865D01*
X05631Y00865D02*
X06376Y00865D01*
X00731Y00865D02*
X03031Y00865D01*
X09156Y00945D02*
X15535Y00945D01*
X05711Y00945D02*
X06296Y00945D01*
X00731Y00945D02*
X02951Y00945D01*
X09236Y01025D02*
X15535Y01025D01*
X05790Y01025D02*
X06216Y01025D01*
X00731Y01025D02*
X02871Y01025D01*
X09316Y01105D02*
X15535Y01105D01*
X05843Y01105D02*
X06143Y01105D01*
X00731Y01105D02*
X02805Y01105D01*
X09396Y01185D02*
X15535Y01185D01*
X05889Y01185D02*
X06090Y01185D01*
X00731Y01185D02*
X02751Y01185D01*
X09474Y01265D02*
X15535Y01265D01*
X05905Y01265D02*
X06053Y01265D01*
X00731Y01265D02*
X02725Y01265D01*
X09527Y01345D02*
X15535Y01345D01*
X05920Y01345D02*
X06037Y01345D01*
X00731Y01345D02*
X02709Y01345D01*
X09571Y01425D02*
X15535Y01425D01*
X05920Y01425D02*
X06026Y01425D01*
X00731Y01425D02*
X02703Y01425D01*
X09587Y01505D02*
X15535Y01505D01*
X05920Y01505D02*
X06026Y01505D01*
X00731Y01505D02*
X02703Y01505D01*
X09601Y01585D02*
X15535Y01585D01*
X05920Y01585D02*
X06026Y01585D01*
X00731Y01585D02*
X02703Y01585D01*
X09601Y01665D02*
X15535Y01665D01*
X05920Y01665D02*
X06026Y01665D01*
X00731Y01665D02*
X02703Y01665D01*
X09601Y01745D02*
X15535Y01745D01*
X05920Y01745D02*
X06026Y01745D01*
X00731Y01745D02*
X02703Y01745D01*
X09601Y01825D02*
X15535Y01825D01*
X05920Y01825D02*
X06026Y01825D01*
X00731Y01825D02*
X02703Y01825D01*
X09601Y01905D02*
X15535Y01905D01*
X05949Y01905D02*
X05996Y01905D01*
X00731Y01905D02*
X02703Y01905D01*
X09601Y01985D02*
X15535Y01985D01*
X00731Y01985D02*
X02703Y01985D01*
X09601Y02065D02*
X15535Y02065D01*
X00731Y02065D02*
X02703Y02065D01*
X09601Y02145D02*
X15535Y02145D01*
X00731Y02145D02*
X02703Y02145D01*
X09601Y02225D02*
X15535Y02225D01*
X00731Y02225D02*
X02703Y02225D01*
X09601Y02305D02*
X15535Y02305D01*
X00731Y02305D02*
X02703Y02305D01*
X09601Y02385D02*
X15535Y02385D01*
X00731Y02385D02*
X02703Y02385D01*
X09601Y02465D02*
X15535Y02465D01*
X00731Y02465D02*
X02703Y02465D01*
X09601Y02545D02*
X15535Y02545D01*
X00731Y02545D02*
X02703Y02545D01*
X09601Y02625D02*
X15535Y02625D01*
X00731Y02625D02*
X02703Y02625D01*
X09601Y02705D02*
X15535Y02705D01*
X00731Y02705D02*
X02703Y02705D01*
X09601Y02785D02*
X15535Y02785D01*
X00731Y02785D02*
X02703Y02785D01*
X09601Y02865D02*
X15535Y02865D01*
X00731Y02865D02*
X02703Y02865D01*
X09601Y02945D02*
X15535Y02945D01*
X00731Y02945D02*
X02703Y02945D01*
X09601Y03025D02*
X15535Y03025D01*
X00731Y03025D02*
X02703Y03025D01*
X09601Y03105D02*
X15535Y03105D01*
X00731Y03105D02*
X02703Y03105D01*
X09601Y03185D02*
X15535Y03185D01*
X00731Y03185D02*
X02703Y03185D01*
X09601Y03265D02*
X15535Y03265D01*
X00731Y03265D02*
X02703Y03265D01*
X09601Y03345D02*
X15535Y03345D01*
X00731Y03345D02*
X02703Y03345D01*
X09601Y03425D02*
X15535Y03425D01*
X00731Y03425D02*
X02703Y03425D01*
X09601Y03505D02*
X15535Y03505D01*
X00731Y03505D02*
X02703Y03505D01*
X09601Y03585D02*
X15535Y03585D01*
X00731Y03585D02*
X02703Y03585D01*
X09601Y03665D02*
X15535Y03665D01*
X00731Y03665D02*
X02703Y03665D01*
X09601Y03745D02*
X15535Y03745D01*
X00731Y03745D02*
X02703Y03745D01*
X09601Y03825D02*
X15535Y03825D01*
X00731Y03825D02*
X02703Y03825D01*
X09601Y03905D02*
X15535Y03905D01*
X00731Y03905D02*
X02703Y03905D01*
X09601Y03985D02*
X15535Y03985D01*
X00731Y03985D02*
X02703Y03985D01*
X09601Y04065D02*
X15535Y04065D01*
X00731Y04065D02*
X02703Y04065D01*
X09601Y04145D02*
X15535Y04145D01*
X00731Y04145D02*
X02703Y04145D01*
X09601Y04225D02*
X15535Y04225D01*
X00731Y04225D02*
X02703Y04225D01*
X09601Y04305D02*
X15535Y04305D01*
X00731Y04305D02*
X02703Y04305D01*
X09601Y04385D02*
X15535Y04385D01*
X00731Y04385D02*
X02703Y04385D01*
X09601Y04465D02*
X15535Y04465D01*
X00731Y04465D02*
X02703Y04465D01*
X09601Y04545D02*
X15535Y04545D01*
X00731Y04545D02*
X02703Y04545D01*
X09601Y04625D02*
X15535Y04625D01*
X00731Y04625D02*
X02703Y04625D01*
X09601Y04705D02*
X15535Y04705D01*
X00731Y04705D02*
X02703Y04705D01*
X09601Y04785D02*
X15535Y04785D01*
X00731Y04785D02*
X02703Y04785D01*
X09601Y04865D02*
X15535Y04865D01*
X00731Y04865D02*
X02703Y04865D01*
X09601Y04945D02*
X15535Y04945D01*
X00731Y04945D02*
X02703Y04945D01*
X09601Y05025D02*
X15535Y05025D01*
X00731Y05025D02*
X02703Y05025D01*
X09601Y05105D02*
X15535Y05105D01*
X00731Y05105D02*
X02703Y05105D01*
X09601Y05185D02*
X15535Y05185D01*
X00731Y05185D02*
X02703Y05185D01*
X09601Y05265D02*
X15535Y05265D01*
X00731Y05265D02*
X02703Y05265D01*
X09601Y05345D02*
X15535Y05345D01*
X00731Y05345D02*
X02703Y05345D01*
X09601Y05425D02*
X15535Y05425D01*
X00731Y05425D02*
X02703Y05425D01*
X09601Y05505D02*
X15535Y05505D01*
X00731Y05505D02*
X02703Y05505D01*
X09601Y05585D02*
X15535Y05585D01*
X00731Y05585D02*
X02703Y05585D01*
X09601Y05665D02*
X15535Y05665D01*
X00731Y05665D02*
X02703Y05665D01*
X09601Y05745D02*
X15535Y05745D01*
X00731Y05745D02*
X02703Y05745D01*
X09601Y05825D02*
X15535Y05825D01*
X00731Y05825D02*
X02703Y05825D01*
X09601Y05905D02*
X15535Y05905D01*
X00731Y05905D02*
X02703Y05905D01*
X09601Y05985D02*
X15535Y05985D01*
X00731Y05985D02*
X02703Y05985D01*
X09601Y06065D02*
X15535Y06065D01*
X00731Y06065D02*
X02703Y06065D01*
X09601Y06145D02*
X15535Y06145D01*
X00731Y06145D02*
X02703Y06145D01*
X09601Y06225D02*
X15535Y06225D01*
X00731Y06225D02*
X02703Y06225D01*
X09601Y06305D02*
X15535Y06305D01*
X00731Y06305D02*
X02703Y06305D01*
X09601Y06385D02*
X15535Y06385D01*
X00731Y06385D02*
X02703Y06385D01*
X09601Y06465D02*
X15535Y06465D01*
X00731Y06465D02*
X02703Y06465D01*
X09601Y06545D02*
X15535Y06545D01*
X00731Y06545D02*
X02703Y06545D01*
X09595Y06625D02*
X15535Y06625D01*
X00731Y06625D02*
X02703Y06625D01*
X09579Y06705D02*
X15535Y06705D01*
X00731Y06705D02*
X02703Y06705D01*
X09554Y06785D02*
X15535Y06785D01*
X00731Y06785D02*
X02703Y06785D01*
X09501Y06865D02*
X15535Y06865D01*
X00731Y06865D02*
X02703Y06865D01*
X09436Y06945D02*
X15535Y06945D01*
X00731Y06945D02*
X02703Y06945D01*
X09356Y07025D02*
X15535Y07025D01*
X00731Y07025D02*
X02703Y07025D01*
X09276Y07105D02*
X15535Y07105D01*
X00731Y07105D02*
X02703Y07105D01*
X09196Y07185D02*
X15535Y07185D01*
X00731Y07185D02*
X02703Y07185D01*
X09116Y07265D02*
X15535Y07265D01*
X00731Y07265D02*
X02703Y07265D01*
X09036Y07345D02*
X15535Y07345D01*
X00731Y07345D02*
X02703Y07345D01*
X08956Y07425D02*
X15535Y07425D01*
X00731Y07425D02*
X02703Y07425D01*
X08876Y07505D02*
X15535Y07505D01*
X00731Y07505D02*
X02703Y07505D01*
X08796Y07585D02*
X15535Y07585D01*
X00731Y07585D02*
X02703Y07585D01*
X08683Y07665D02*
X15535Y07665D01*
X00731Y07665D02*
X02703Y07665D01*
X06963Y07745D02*
X15535Y07745D01*
X00731Y07745D02*
X02703Y07745D01*
X06920Y07825D02*
X15535Y07825D01*
X00731Y07825D02*
X02708Y07825D01*
X06920Y07905D02*
X15535Y07905D01*
X00731Y07905D02*
X02724Y07905D01*
X06920Y07985D02*
X15535Y07985D01*
X00731Y07985D02*
X02745Y07985D01*
X06920Y08065D02*
X15535Y08065D01*
X00731Y08065D02*
X02798Y08065D01*
X06920Y08145D02*
X15535Y08145D01*
X00731Y08145D02*
X02860Y08145D01*
X06920Y08225D02*
X15535Y08225D01*
X00731Y08225D02*
X02940Y08225D01*
X06920Y08305D02*
X15535Y08305D01*
X00731Y08305D02*
X03020Y08305D01*
X06920Y08385D02*
X15535Y08385D01*
X00731Y08385D02*
X03100Y08385D01*
X07680Y08465D02*
X15535Y08465D01*
X06920Y08465D02*
X07265Y08465D01*
X00731Y08465D02*
X03180Y08465D01*
X07821Y08545D02*
X15535Y08545D01*
X06920Y08545D02*
X07125Y08545D01*
X00731Y08545D02*
X03260Y08545D01*
X07901Y08625D02*
X15535Y08625D01*
X06920Y08625D02*
X07045Y08625D01*
X00731Y08625D02*
X03340Y08625D01*
X07955Y08705D02*
X15535Y08705D01*
X06955Y08705D02*
X06990Y08705D01*
X00731Y08705D02*
X03420Y08705D01*
X07989Y08785D02*
X15535Y08785D01*
X00731Y08785D02*
X03500Y08785D01*
X08022Y08865D02*
X15535Y08865D01*
X00731Y08865D02*
X03580Y08865D01*
X08022Y08945D02*
X15535Y08945D01*
X00731Y08945D02*
X03660Y08945D01*
X08022Y09025D02*
X15535Y09025D01*
X00731Y09025D02*
X03740Y09025D01*
X08022Y09105D02*
X15535Y09105D01*
X00731Y09105D02*
X03820Y09105D01*
X08022Y09185D02*
X15535Y09185D01*
X00731Y09185D02*
X03900Y09185D01*
X08022Y09265D02*
X15535Y09265D01*
X00731Y09265D02*
X03924Y09265D01*
X08022Y09345D02*
X15535Y09345D01*
X00731Y09345D02*
X03924Y09345D01*
X08007Y09425D02*
X15535Y09425D01*
X00731Y09425D02*
X03940Y09425D01*
X07974Y09505D02*
X15535Y09505D01*
X00731Y09505D02*
X03973Y09505D01*
X07941Y09585D02*
X15535Y09585D01*
X04941Y09585D02*
X05006Y09585D01*
X00731Y09585D02*
X04006Y09585D01*
X07920Y09665D02*
X15535Y09665D01*
X04863Y09665D02*
X05026Y09665D01*
X00731Y09665D02*
X04083Y09665D01*
X07920Y09745D02*
X15535Y09745D01*
X04782Y09745D02*
X05026Y09745D01*
X00731Y09745D02*
X04165Y09745D01*
X07920Y09825D02*
X15535Y09825D01*
X04590Y09825D02*
X05026Y09825D01*
X00731Y09825D02*
X04357Y09825D01*
X07920Y09905D02*
X15535Y09905D01*
X00731Y09905D02*
X05026Y09905D01*
X07920Y09985D02*
X15535Y09985D01*
X00731Y09985D02*
X05038Y09985D01*
X07913Y10065D02*
X15535Y10065D01*
X00731Y10065D02*
X05054Y10065D01*
X07897Y10145D02*
X15535Y10145D01*
X00731Y10145D02*
X05093Y10145D01*
X07868Y10225D02*
X15535Y10225D01*
X00731Y10225D02*
X05146Y10225D01*
X07814Y10305D02*
X15535Y10305D01*
X00731Y10305D02*
X05220Y10305D01*
X07746Y10385D02*
X15535Y10385D01*
X00731Y10385D02*
X05300Y10385D01*
X07666Y10465D02*
X15535Y10465D01*
X00731Y10465D02*
X05380Y10465D01*
X07586Y10545D02*
X15535Y10545D01*
X00731Y10545D02*
X05460Y10545D01*
X07506Y10625D02*
X15535Y10625D01*
X00731Y10625D02*
X05540Y10625D01*
X07395Y10705D02*
X15535Y10705D01*
X00731Y10705D02*
X05650Y10705D01*
X00731Y10785D02*
X15535Y10785D01*
X00731Y10865D02*
X15535Y10865D01*
X00731Y10945D02*
X15535Y10945D01*
X00731Y11025D02*
X15535Y11025D01*
X00731Y11105D02*
X15535Y11105D01*
X00731Y11185D02*
X15535Y11185D01*
X00731Y11265D02*
X15535Y11265D01*
X00731Y11345D02*
X15535Y11345D01*
X00731Y11425D02*
X15535Y11425D01*
X00731Y11505D02*
X15535Y11505D01*
X00731Y11585D02*
X15535Y11585D01*
X00731Y11665D02*
X15535Y11665D01*
X00731Y11745D02*
X15535Y11745D01*
X00731Y11825D02*
X15535Y11825D01*
X00731Y11905D02*
X15535Y11905D01*
X15535Y00505D02*
X15535Y11905D01*
X15535Y11905D02*
X00731Y11905D01*
X00731Y11905D02*
X00731Y00505D01*
X00731Y00505D02*
X06890Y00505D01*
X06890Y00505D02*
X06890Y00537D01*
X06890Y00537D02*
X06719Y00571D01*
X06719Y00571D02*
X06573Y00668D01*
X06573Y00668D02*
X06157Y01085D01*
X06157Y01085D02*
X06060Y01230D01*
X06060Y01230D02*
X06026Y01401D01*
X06026Y01401D02*
X06026Y01834D01*
X06026Y01834D02*
X05973Y01962D01*
X05973Y01962D02*
X05920Y01833D01*
X05920Y01833D02*
X05920Y01339D01*
X05920Y01339D02*
X05886Y01168D01*
X05886Y01168D02*
X05789Y01023D01*
X05789Y01023D02*
X05434Y00668D01*
X05434Y00668D02*
X05289Y00571D01*
X05289Y00571D02*
X05118Y00537D01*
X05118Y00537D02*
X03544Y00537D01*
X03544Y00537D02*
X03373Y00571D01*
X03373Y00571D02*
X03228Y00668D01*
X03228Y00668D02*
X02834Y01062D01*
X02834Y01062D02*
X02737Y01207D01*
X02737Y01207D02*
X02703Y01378D01*
X02703Y01378D02*
X02703Y07803D01*
X02703Y07803D02*
X02737Y07974D01*
X02737Y07974D02*
X02834Y08119D01*
X02834Y08119D02*
X03924Y09209D01*
X03924Y09209D02*
X03924Y09388D01*
X03924Y09388D02*
X04008Y09590D01*
X04008Y09590D02*
X04162Y09744D01*
X04162Y09744D02*
X04364Y09828D01*
X04364Y09828D02*
X04582Y09828D01*
X04582Y09828D02*
X04784Y09744D01*
X04784Y09744D02*
X04938Y09590D01*
X04938Y09590D02*
X04973Y09506D01*
X04973Y09506D02*
X05008Y09590D01*
X05008Y09590D02*
X05026Y09608D01*
X05026Y09608D02*
X05026Y09926D01*
X05026Y09926D02*
X05060Y10097D01*
X05060Y10097D02*
X05157Y10242D01*
X05157Y10242D02*
X05556Y10642D01*
X05556Y10642D02*
X05652Y10707D01*
X05652Y10707D02*
X05702Y10739D01*
X05702Y10739D02*
X05873Y10773D01*
X05873Y10773D02*
X07173Y10773D01*
X07173Y10773D02*
X07344Y10739D01*
X07344Y10739D02*
X07489Y10642D01*
X07489Y10642D02*
X07789Y10342D01*
X07789Y10342D02*
X07886Y10197D01*
X07886Y10197D02*
X07920Y10026D01*
X07920Y10026D02*
X07920Y09608D01*
X07920Y09608D02*
X07938Y09590D01*
X07938Y09590D02*
X08022Y09388D01*
X08022Y09388D02*
X08022Y08864D01*
X08022Y08864D02*
X07938Y08662D01*
X07938Y08662D02*
X07784Y08508D01*
X07784Y08508D02*
X07582Y08424D01*
X07582Y08424D02*
X07364Y08424D01*
X07364Y08424D02*
X07162Y08508D01*
X07162Y08508D02*
X07008Y08662D01*
X07008Y08662D02*
X06973Y08747D01*
X06973Y08747D02*
X06938Y08662D01*
X06938Y08662D02*
X06920Y08644D01*
X06920Y08644D02*
X06920Y07788D01*
X06920Y07788D02*
X06976Y07731D01*
X06976Y07731D02*
X08464Y07731D01*
X08464Y07731D02*
X08635Y07697D01*
X08635Y07697D02*
X08780Y07600D01*
X08780Y07600D02*
X09470Y06911D01*
X09470Y06911D02*
X09567Y06765D01*
X09567Y06765D02*
X09601Y06594D01*
X09601Y06594D02*
X09601Y01575D01*
X09601Y01575D02*
X09567Y01404D01*
X09567Y01404D02*
X09470Y01258D01*
X09470Y01258D02*
X08879Y00668D01*
X08879Y00668D02*
X08734Y00571D01*
X08734Y00571D02*
X08563Y00537D01*
X08563Y00537D02*
X06890Y00537D01*
X06890Y00537D02*
X06890Y00505D01*
X06890Y00505D02*
X15535Y00505D01*
X08377Y01431D02*
X08707Y01761D01*
X08707Y01761D02*
X08707Y06409D01*
X08707Y06409D02*
X08278Y06837D01*
X08278Y06837D02*
X06791Y06837D01*
X06791Y06837D02*
X06620Y06871D01*
X06620Y06871D02*
X06474Y06968D01*
X06474Y06968D02*
X06157Y07286D01*
X06157Y07286D02*
X06060Y07431D01*
X06060Y07431D02*
X06026Y07602D01*
X06026Y07602D02*
X06026Y08644D01*
X06026Y08644D02*
X06008Y08662D01*
X06008Y08662D02*
X05972Y08747D01*
X05972Y08747D02*
X05938Y08662D01*
X05938Y08662D02*
X05784Y08508D01*
X05784Y08508D02*
X05582Y08424D01*
X05582Y08424D02*
X05364Y08424D01*
X05364Y08424D02*
X05162Y08508D01*
X05162Y08508D02*
X05008Y08662D01*
X05008Y08662D02*
X04973Y08747D01*
X04973Y08747D02*
X04938Y08662D01*
X04938Y08662D02*
X04784Y08508D01*
X04784Y08508D02*
X04582Y08424D01*
X04582Y08424D02*
X04403Y08424D01*
X04403Y08424D02*
X03597Y07618D01*
X03597Y07618D02*
X03597Y01563D01*
X03597Y01563D02*
X03729Y01431D01*
X03729Y01431D02*
X04933Y01431D01*
X04933Y01431D02*
X05026Y01524D01*
X05026Y01524D02*
X05026Y01834D01*
X05026Y01834D02*
X04997Y01904D01*
X04997Y01904D02*
X04997Y01801D01*
X04997Y01801D02*
X04959Y01710D01*
X04959Y01710D02*
X04889Y01640D01*
X04889Y01640D02*
X04797Y01602D01*
X04797Y01602D02*
X04148Y01602D01*
X04148Y01602D02*
X04057Y01640D01*
X04057Y01640D02*
X03987Y01710D01*
X03987Y01710D02*
X03949Y01802D01*
X03949Y01802D02*
X03949Y02451D01*
X03949Y02451D02*
X03987Y02542D01*
X03987Y02542D02*
X04026Y02581D01*
X04026Y02581D02*
X04026Y04464D01*
X04026Y04464D02*
X04022Y04465D01*
X04022Y04465D02*
X03952Y04535D01*
X03952Y04535D02*
X03914Y04627D01*
X03914Y04627D02*
X03914Y05626D01*
X03914Y05626D02*
X03952Y05717D01*
X03952Y05717D02*
X04022Y05787D01*
X04022Y05787D02*
X04114Y05825D01*
X04114Y05825D02*
X04833Y05825D01*
X04833Y05825D02*
X04924Y05787D01*
X04924Y05787D02*
X04994Y05717D01*
X04994Y05717D02*
X05032Y05625D01*
X05032Y05625D02*
X05032Y05614D01*
X05032Y05614D02*
X05162Y05744D01*
X05162Y05744D02*
X05364Y05828D01*
X05364Y05828D02*
X05582Y05828D01*
X05582Y05828D02*
X05784Y05744D01*
X05784Y05744D02*
X05914Y05614D01*
X05914Y05614D02*
X05914Y05626D01*
X05914Y05626D02*
X05952Y05717D01*
X05952Y05717D02*
X06022Y05787D01*
X06022Y05787D02*
X06114Y05825D01*
X06114Y05825D02*
X06833Y05825D01*
X06833Y05825D02*
X06924Y05787D01*
X06924Y05787D02*
X06994Y05717D01*
X06994Y05717D02*
X07032Y05625D01*
X07032Y05625D02*
X07032Y05614D01*
X07032Y05614D02*
X07162Y05744D01*
X07162Y05744D02*
X07364Y05828D01*
X07364Y05828D02*
X07582Y05828D01*
X07582Y05828D02*
X07784Y05744D01*
X07784Y05744D02*
X07938Y05590D01*
X07938Y05590D02*
X08022Y05388D01*
X08022Y05388D02*
X08022Y04864D01*
X08022Y04864D02*
X07938Y04662D01*
X07938Y04662D02*
X07920Y04644D01*
X07920Y04644D02*
X07920Y04481D01*
X07920Y04481D02*
X07959Y04442D01*
X07959Y04442D02*
X07997Y04350D01*
X07997Y04350D02*
X07997Y03701D01*
X07997Y03701D02*
X07959Y03610D01*
X07959Y03610D02*
X07889Y03540D01*
X07889Y03540D02*
X07797Y03502D01*
X07797Y03502D02*
X07670Y03502D01*
X07670Y03502D02*
X07740Y03478D01*
X07740Y03478D02*
X07763Y03387D01*
X07763Y03387D02*
X07473Y03097D01*
X07473Y03097D02*
X07183Y03387D01*
X07183Y03387D02*
X07206Y03478D01*
X07206Y03478D02*
X07264Y03502D01*
X07264Y03502D02*
X07148Y03502D01*
X07148Y03502D02*
X07057Y03540D01*
X07057Y03540D02*
X06987Y03610D01*
X06987Y03610D02*
X06949Y03702D01*
X06949Y03702D02*
X06949Y03829D01*
X06949Y03829D02*
X06925Y03759D01*
X06925Y03759D02*
X06834Y03736D01*
X06834Y03736D02*
X06544Y04026D01*
X06544Y04026D02*
X06834Y04316D01*
X06834Y04316D02*
X06925Y04293D01*
X06925Y04293D02*
X06949Y04235D01*
X06949Y04235D02*
X06949Y04351D01*
X06949Y04351D02*
X06987Y04442D01*
X06987Y04442D02*
X07026Y04481D01*
X07026Y04481D02*
X07026Y04612D01*
X07026Y04612D02*
X06994Y04535D01*
X06994Y04535D02*
X06924Y04465D01*
X06924Y04465D02*
X06832Y04427D01*
X06832Y04427D02*
X06752Y04427D01*
X06752Y04427D02*
X06763Y04387D01*
X06763Y04387D02*
X06473Y04097D01*
X06473Y04097D02*
X06183Y04387D01*
X06183Y04387D02*
X06193Y04427D01*
X06193Y04427D02*
X06113Y04427D01*
X06113Y04427D02*
X06022Y04465D01*
X06022Y04465D02*
X05952Y04535D01*
X05952Y04535D02*
X05914Y04627D01*
X05914Y04627D02*
X05914Y04638D01*
X05914Y04638D02*
X05784Y04508D01*
X05784Y04508D02*
X05724Y04484D01*
X05724Y04484D02*
X05740Y04478D01*
X05740Y04478D02*
X05763Y04387D01*
X05763Y04387D02*
X05473Y04097D01*
X05473Y04097D02*
X05183Y04387D01*
X05183Y04387D02*
X05206Y04478D01*
X05206Y04478D02*
X05220Y04484D01*
X05220Y04484D02*
X05162Y04508D01*
X05162Y04508D02*
X05032Y04638D01*
X05032Y04638D02*
X05032Y04626D01*
X05032Y04626D02*
X04994Y04535D01*
X04994Y04535D02*
X04924Y04465D01*
X04924Y04465D02*
X04920Y04464D01*
X04920Y04464D02*
X04920Y02581D01*
X04920Y02581D02*
X04959Y02542D01*
X04959Y02542D02*
X04997Y02450D01*
X04997Y02450D02*
X04997Y02350D01*
X04997Y02350D02*
X05026Y02420D01*
X05026Y02420D02*
X05026Y02571D01*
X05026Y02571D02*
X04987Y02610D01*
X04987Y02610D02*
X04949Y02702D01*
X04949Y02702D02*
X04949Y03351D01*
X04949Y03351D02*
X04987Y03442D01*
X04987Y03442D02*
X05057Y03512D01*
X05057Y03512D02*
X05112Y03535D01*
X05112Y03535D02*
X05112Y03736D01*
X05112Y03736D02*
X05021Y03759D01*
X05021Y03759D02*
X04965Y03896D01*
X04965Y03896D02*
X04954Y04100D01*
X04954Y04100D02*
X05021Y04293D01*
X05021Y04293D02*
X05112Y04316D01*
X05112Y04316D02*
X05402Y04026D01*
X05402Y04026D02*
X05112Y03736D01*
X05112Y03736D02*
X05112Y03535D01*
X05112Y03535D02*
X05149Y03550D01*
X05149Y03550D02*
X05275Y03550D01*
X05275Y03550D02*
X05206Y03574D01*
X05206Y03574D02*
X05183Y03665D01*
X05183Y03665D02*
X05473Y03955D01*
X05473Y03955D02*
X05763Y03665D01*
X05763Y03665D02*
X05740Y03574D01*
X05740Y03574D02*
X05681Y03550D01*
X05681Y03550D02*
X05798Y03550D01*
X05798Y03550D02*
X05889Y03512D01*
X05889Y03512D02*
X05959Y03442D01*
X05959Y03442D02*
X05972Y03409D01*
X05972Y03409D02*
X05987Y03442D01*
X05987Y03442D02*
X06057Y03512D01*
X06057Y03512D02*
X06112Y03535D01*
X06112Y03535D02*
X06112Y03736D01*
X06112Y03736D02*
X06021Y03759D01*
X06021Y03759D02*
X05969Y03886D01*
X05969Y03886D02*
X05925Y03759D01*
X05925Y03759D02*
X05834Y03736D01*
X05834Y03736D02*
X05544Y04026D01*
X05544Y04026D02*
X05834Y04316D01*
X05834Y04316D02*
X05925Y04293D01*
X05925Y04293D02*
X05976Y04167D01*
X05976Y04167D02*
X06021Y04293D01*
X06021Y04293D02*
X06112Y04316D01*
X06112Y04316D02*
X06402Y04026D01*
X06402Y04026D02*
X06112Y03736D01*
X06112Y03736D02*
X06112Y03535D01*
X06112Y03535D02*
X06149Y03550D01*
X06149Y03550D02*
X06275Y03550D01*
X06275Y03550D02*
X06206Y03574D01*
X06206Y03574D02*
X06183Y03665D01*
X06183Y03665D02*
X06473Y03955D01*
X06473Y03955D02*
X06763Y03665D01*
X06763Y03665D02*
X06740Y03574D01*
X06740Y03574D02*
X06681Y03550D01*
X06681Y03550D02*
X06798Y03550D01*
X06798Y03550D02*
X06889Y03512D01*
X06889Y03512D02*
X06959Y03442D01*
X06959Y03442D02*
X06997Y03350D01*
X06997Y03350D02*
X06997Y03224D01*
X06997Y03224D02*
X07021Y03293D01*
X07021Y03293D02*
X07112Y03316D01*
X07112Y03316D02*
X07402Y03026D01*
X07402Y03026D02*
X07112Y02736D01*
X07112Y02736D02*
X07021Y02759D01*
X07021Y02759D02*
X06997Y02818D01*
X06997Y02818D02*
X06997Y02701D01*
X06997Y02701D02*
X06959Y02610D01*
X06959Y02610D02*
X06920Y02571D01*
X06920Y02571D02*
X06920Y02419D01*
X06920Y02419D02*
X06979Y02275D01*
X06979Y02275D02*
X07021Y02393D01*
X07021Y02393D02*
X07112Y02416D01*
X07112Y02416D02*
X07402Y02126D01*
X07402Y02126D02*
X07112Y01836D01*
X07112Y01836D02*
X07021Y01859D01*
X07021Y01859D02*
X06976Y01969D01*
X06976Y01969D02*
X06920Y01833D01*
X06920Y01833D02*
X06920Y01587D01*
X06920Y01587D02*
X07075Y01431D01*
X07075Y01431D02*
X07399Y01431D01*
X07399Y01431D02*
X07399Y01607D01*
X07399Y01607D02*
X07206Y01674D01*
X07206Y01674D02*
X07183Y01765D01*
X07183Y01765D02*
X07473Y02055D01*
X07473Y02055D02*
X07473Y02197D01*
X07473Y02197D02*
X07183Y02487D01*
X07183Y02487D02*
X07205Y02576D01*
X07205Y02576D02*
X07183Y02665D01*
X07183Y02665D02*
X07473Y02955D01*
X07473Y02955D02*
X07763Y02665D01*
X07763Y02665D02*
X07740Y02576D01*
X07740Y02576D02*
X07763Y02487D01*
X07763Y02487D02*
X07473Y02197D01*
X07473Y02197D02*
X07473Y02055D01*
X07473Y02055D02*
X07763Y01765D01*
X07763Y01765D02*
X07740Y01674D01*
X07740Y01674D02*
X07603Y01618D01*
X07603Y01618D02*
X07399Y01607D01*
X07399Y01607D02*
X07399Y01431D01*
X07399Y01431D02*
X07834Y01431D01*
X07834Y01431D02*
X07834Y01836D01*
X07834Y01836D02*
X07544Y02126D01*
X07544Y02126D02*
X07834Y02416D01*
X07834Y02416D02*
X07834Y02736D01*
X07834Y02736D02*
X07544Y03026D01*
X07544Y03026D02*
X07834Y03316D01*
X07834Y03316D02*
X07925Y03293D01*
X07925Y03293D02*
X07981Y03156D01*
X07981Y03156D02*
X07992Y02952D01*
X07992Y02952D02*
X07925Y02759D01*
X07925Y02759D02*
X07834Y02736D01*
X07834Y02736D02*
X07834Y02416D01*
X07834Y02416D02*
X07925Y02393D01*
X07925Y02393D02*
X07981Y02256D01*
X07981Y02256D02*
X07992Y02052D01*
X07992Y02052D02*
X07925Y01859D01*
X07925Y01859D02*
X07834Y01836D01*
X07834Y01836D02*
X07834Y01431D01*
X07834Y01431D02*
X08377Y01431D01*
M02*
